<?xml version="1.0" encoding="UTF-8"?>
<svg id="Layer_1" xmlns="http://www.w3.org/2000/svg" version="1.1" viewBox="0 0 74.61 42.89">
  <!-- Generator: Adobe Illustrator 29.1.0, SVG Export Plug-In . SVG Version: 2.1.0 Build 142)  -->
  <defs>
    <style>
      .st0 {
        fill: #fff;
      }
    </style>
  </defs>
  <path class="st0" d="M13.02,22.98c.85,0,1.54-.69,1.54-1.53s-.69-1.53-1.54-1.53-1.53.68-1.53,1.53.69,1.53,1.53,1.53"/>
  <path class="st0" d="M13.02,31.4c.85,0,1.54-.69,1.54-1.53s-.69-1.54-1.54-1.54-1.53.69-1.53,1.54.69,1.53,1.53,1.53"/>
  <path class="st0" d="M21.45,22.98c.85,0,1.53-.69,1.53-1.53s-.69-1.53-1.53-1.53-1.53.68-1.53,1.53.69,1.53,1.53,1.53"/>
  <path class="st0" d="M21.45,31.4c.85,0,1.53-.69,1.53-1.53s-.69-1.54-1.53-1.54-1.53.69-1.53,1.54.69,1.53,1.53,1.53"/>
  <path class="st0" d="M29.87,22.98c.85,0,1.54-.69,1.54-1.53s-.69-1.53-1.54-1.53-1.53.68-1.53,1.53.68,1.53,1.53,1.53"/>
  <path class="st0" d="M13.02,14.56c.85,0,1.54-.69,1.54-1.53s-.69-1.53-1.54-1.53-1.53.68-1.53,1.53.69,1.53,1.53,1.53"/>
  <path class="st0" d="M21.45,14.56c.85,0,1.53-.69,1.53-1.53s-.69-1.53-1.53-1.53-1.53.68-1.53,1.53.69,1.53,1.53,1.53"/>
  <path class="st0" d="M29.87,14.56c.85,0,1.54-.69,1.54-1.53s-.69-1.53-1.54-1.53-1.53.68-1.53,1.53.68,1.53,1.53,1.53"/>
  <path class="st0" d="M29.87,31.4c.85,0,1.54-.69,1.54-1.53s-.69-1.54-1.54-1.54-1.53.69-1.53,1.54.68,1.53,1.53,1.53"/>
  <path class="st0" d="M38.29,22.98c.85,0,1.53-.69,1.53-1.53s-.69-1.53-1.53-1.53-1.53.68-1.53,1.53.68,1.53,1.53,1.53"/>
  <path class="st0" d="M38.29,31.4c.85,0,1.53-.69,1.53-1.53s-.69-1.54-1.53-1.54-1.53.69-1.53,1.54.68,1.53,1.53,1.53"/>
  <path class="st0" d="M38.29,14.56c.85,0,1.53-.69,1.53-1.54s-.69-1.53-1.53-1.53-1.53.69-1.53,1.53.68,1.54,1.53,1.54"/>
  <path class="st0" d="M64.4,23.14c-.08,0-.11.04-.11.11v7.96c0,.08.03.11.11.11h.92c.07,0,.1-.04.1-.11v-7.96c0-.08-.03-.11-.1-.11h-.92ZM56.81,24.19c0-.06.02-.09.08-.09h3.3c.08,0,.12-.05.12-.12v-.71c0-.08-.04-.11-.12-.11h-4.4c-.08,0-.11.04-.11.11v7.96c0,.08.03.11.11.11h4.4c.08,0,.12-.04.12-.11v-.73c0-.08-.04-.11-.12-.11h-3.3c-.06,0-.08-.03-.08-.09v-2.57h2.65c.08,0,.12-.04.12-.11v-.73c0-.08-.05-.11-.12-.11h-2.65v-2.57ZM48.6,24.19c0-.06.04-.09.09-.09h3.17c.08,0,.12-.05.12-.12v-.71c0-.08-.05-.11-.12-.11h-4.28c-.08,0-.11.04-.11.11v7.96c0,.08.03.11.11.11h.92c.07,0,.1-.04.1-.11v-3.5h2.54c.08,0,.12-.04.12-.11v-.73c0-.08-.05-.11-.12-.11h-2.54v-2.57Z"/>
  <path class="st0" d="M72.08,11.76c0-.1-.04-.15-.12-.15h-1.53c-.09,0-.14.04-.14.15v5.46c0,.8-.44,1.2-1.34,1.2s-1.33-.4-1.33-1.2v-5.46c0-.1-.04-.15-.12-.15h-1.52c-.1,0-.15.04-.15.15v5.51c0,1.6.89,2.61,3.12,2.61s3.13-1.01,3.13-2.61v-5.51ZM59.75,19.79c.1,0,.15-.05.15-.15v-6.49c0-.06.02-.09.08-.09h1.93c.09,0,.14-.04.14-.15v-1.16c0-.1-.04-.15-.14-.15h-5.78c-.1,0-.15.04-.15.15v1.16c0,.1.04.15.15.15h1.89c.06,0,.09.03.09.09v6.49c0,.1.04.15.12.15h1.52ZM47.2,19.4c.77.4,1.51.48,2.45.48,1.74,0,2.87-.87,2.87-2.46,0-1.16-.55-1.86-1.96-2.46-1.21-.49-1.38-.7-1.38-1.16s.32-.78,1.04-.78c.53,0,.99.09,1.43.27.1.04.17,0,.2-.08l.53-1.04c.04-.08.04-.16-.07-.19-.83-.36-1.3-.44-2.4-.44-1.69,0-2.69.99-2.69,2.31,0,1.21.61,1.96,2.03,2.56,1.1.49,1.33.72,1.33,1.19,0,.5-.41.79-1.09.79-.78,0-1.18-.16-1.66-.37-.09-.04-.16,0-.19.08l-.51,1.17s0,.09.07.14"/>
</svg>